STARTFONT 2.1
FONT -Misc-Tamsynu-Bold-R-Normal--14-101-100-100-C-70-ISO10646-1
SIZE 14 100 100
FONTBOUNDINGBOX 7 14 0 -3
STARTPROPERTIES 25
FONTNAME_REGISTRY ""
FOUNDRY "Misc"
FAMILY_NAME "Tamsynu"
WEIGHT_NAME "Bold"
SLANT "R"
SETWIDTH_NAME "Normal"
ADD_STYLE_NAME ""
PIXEL_SIZE 14
POINT_SIZE 101
RESOLUTION_X 100
RESOLUTION_Y 100
SPACING "C"
AVERAGE_WIDTH 70
CHARSET_REGISTRY "ISO10646"
CHARSET_ENCODING "1"
COPYRIGHT "(c) 2012 Scott Fial"
CAP_HEIGHT 8
X_HEIGHT 6
FONT_VERSION "1.9"
WEIGHT 10
QUAD_WIDTH 7
DEFAULT_CHAR 0
FONT_DESCENT 3
FONT_ASCENT 11
_GBDFED_INFO "Edited with gbdfed 1.6."
ENDPROPERTIES
CHARS 364
STARTCHAR U+0000
ENCODING 0
SWIDTH 360 0
DWIDTH 7 0
BBX 7 14 0 -3
BITMAP
00
00
00
7E
66
66
66
66
66
66
7E
00
00
00
ENDCHAR
STARTCHAR U+25C6
ENCODING 1
SWIDTH 360 0
DWIDTH 7 0
BBX 7 14 0 -3
BITMAP
00
00
00
00
00
00
00
00
00
00
00
00
00
00
ENDCHAR
STARTCHAR U+2592
ENCODING 2
SWIDTH 360 0
DWIDTH 7 0
BBX 7 14 0 -3
BITMAP
92
24
48
92
24
48
92
24
48
92
24
48
92
24
ENDCHAR
STARTCHAR U+2409
ENCODING 3
SWIDTH 360 0
DWIDTH 7 0
BBX 7 14 0 -3
BITMAP
00
00
00
00
00
00
00
00
00
00
00
00
00
00
ENDCHAR
STARTCHAR U+240C
ENCODING 4
SWIDTH 360 0
DWIDTH 7 0
BBX 7 14 0 -3
BITMAP
00
00
00
00
00
00
00
00
00
00
00
00
00
00
ENDCHAR
STARTCHAR U+240D
ENCODING 5
SWIDTH 360 0
DWIDTH 7 0
BBX 7 14 0 -3
BITMAP
00
00
00
00
00
00
00
00
00
00
00
00
00
00
ENDCHAR
STARTCHAR U+240A
ENCODING 6
SWIDTH 360 0
DWIDTH 7 0
BBX 7 14 0 -3
BITMAP
00
00
00
00
00
00
00
00
00
00
00
00
00
00
ENDCHAR
STARTCHAR U+00B0
ENCODING 7
SWIDTH 360 0
DWIDTH 7 0
BBX 7 14 0 -3
BITMAP
00
00
00
00
00
00
00
00
00
00
00
00
00
00
ENDCHAR
STARTCHAR U+00B1
ENCODING 8
SWIDTH 360 0
DWIDTH 7 0
BBX 7 14 0 -3
BITMAP
00
00
00
00
00
00
00
00
00
00
00
00
00
00
ENDCHAR
STARTCHAR U+09E8
ENCODING 9
SWIDTH 360 0
DWIDTH 7 0
BBX 7 14 0 -3
BITMAP
00
00
00
00
00
00
00
00
00
00
00
00
00
00
ENDCHAR
STARTCHAR U+09E9
ENCODING 10
SWIDTH 360 0
DWIDTH 7 0
BBX 7 14 0 -3
BITMAP
00
00
00
00
00
00
00
00
00
00
00
00
00
00
ENDCHAR
STARTCHAR U+2518
ENCODING 11
SWIDTH 360 0
DWIDTH 7 0
BBX 7 14 0 -3
BITMAP
30
30
30
30
30
30
30
F0
00
00
00
00
00
00
ENDCHAR
STARTCHAR U+2510
ENCODING 12
SWIDTH 360 0
DWIDTH 7 0
BBX 7 14 0 -3
BITMAP
00
00
00
00
00
00
00
F0
30
30
30
30
30
30
ENDCHAR
STARTCHAR U+250C
ENCODING 13
SWIDTH 360 0
DWIDTH 7 0
BBX 7 14 0 -3
BITMAP
00
00
00
00
00
00
00
3E
30
30
30
30
30
30
ENDCHAR
STARTCHAR U+2514
ENCODING 14
SWIDTH 360 0
DWIDTH 7 0
BBX 7 14 0 -3
BITMAP
30
30
30
30
30
30
30
3E
00
00
00
00
00
00
ENDCHAR
STARTCHAR U+253C
ENCODING 15
SWIDTH 360 0
DWIDTH 7 0
BBX 7 14 0 -3
BITMAP
30
30
30
30
30
30
30
FE
30
30
30
30
30
30
ENDCHAR
STARTCHAR U+23BA
ENCODING 16
SWIDTH 360 0
DWIDTH 7 0
BBX 7 14 0 -3
BITMAP
00
00
00
00
00
00
00
00
00
00
00
00
00
00
ENDCHAR
STARTCHAR U+23BB
ENCODING 17
SWIDTH 360 0
DWIDTH 7 0
BBX 7 14 0 -3
BITMAP
00
00
00
00
00
00
00
00
00
00
00
00
00
00
ENDCHAR
STARTCHAR U+2500
ENCODING 18
SWIDTH 360 0
DWIDTH 7 0
BBX 7 14 0 -3
BITMAP
00
00
00
00
00
00
00
FE
00
00
00
00
00
00
ENDCHAR
STARTCHAR U+23BC
ENCODING 19
SWIDTH 360 0
DWIDTH 7 0
BBX 7 14 0 -3
BITMAP
00
00
00
00
00
00
00
00
00
00
00
00
00
00
ENDCHAR
STARTCHAR U+23BD
ENCODING 20
SWIDTH 360 0
DWIDTH 7 0
BBX 7 14 0 -3
BITMAP
00
00
00
00
00
00
00
00
00
00
00
00
00
00
ENDCHAR
STARTCHAR U+251C
ENCODING 21
SWIDTH 360 0
DWIDTH 7 0
BBX 7 14 0 -3
BITMAP
30
30
30
30
30
30
30
3E
30
30
30
30
30
30
ENDCHAR
STARTCHAR U+2524
ENCODING 22
SWIDTH 360 0
DWIDTH 7 0
BBX 7 14 0 -3
BITMAP
30
30
30
30
30
30
30
F0
30
30
30
30
30
30
ENDCHAR
STARTCHAR U+2534
ENCODING 23
SWIDTH 360 0
DWIDTH 7 0
BBX 7 14 0 -3
BITMAP
30
30
30
30
30
30
30
FE
00
00
00
00
00
00
ENDCHAR
STARTCHAR U+252C
ENCODING 24
SWIDTH 360 0
DWIDTH 7 0
BBX 7 14 0 -3
BITMAP
00
00
00
00
00
00
00
FE
30
30
30
30
30
30
ENDCHAR
STARTCHAR U+2502
ENCODING 25
SWIDTH 360 0
DWIDTH 7 0
BBX 7 14 0 -3
BITMAP
30
30
30
30
30
30
30
30
30
30
30
30
30
30
ENDCHAR
STARTCHAR U+2264
ENCODING 26
SWIDTH 360 0
DWIDTH 7 0
BBX 7 14 0 -3
BITMAP
00
00
00
00
00
00
00
00
00
00
00
00
00
00
ENDCHAR
STARTCHAR U+2265
ENCODING 27
SWIDTH 360 0
DWIDTH 7 0
BBX 7 14 0 -3
BITMAP
00
00
00
00
00
00
00
00
00
00
00
00
00
00
ENDCHAR
STARTCHAR U+03C0
ENCODING 28
SWIDTH 360 0
DWIDTH 7 0
BBX 7 14 0 -3
BITMAP
00
00
00
00
00
00
00
00
00
00
00
00
00
00
ENDCHAR
STARTCHAR U+2260
ENCODING 29
SWIDTH 360 0
DWIDTH 7 0
BBX 7 14 0 -3
BITMAP
00
00
00
00
00
00
00
00
00
00
00
00
00
00
ENDCHAR
STARTCHAR U+00A3
ENCODING 30
SWIDTH 360 0
DWIDTH 7 0
BBX 7 14 0 -3
BITMAP
00
00
00
38
6C
60
60
F8
60
60
FC
00
00
00
ENDCHAR
STARTCHAR U+00B7
ENCODING 31
SWIDTH 360 0
DWIDTH 7 0
BBX 7 14 0 -3
BITMAP
00
00
00
00
00
00
00
00
00
00
00
00
00
00
ENDCHAR
STARTCHAR U+0020
ENCODING 32
SWIDTH 360 0
DWIDTH 7 0
BBX 7 14 0 -3
BITMAP
00
00
00
00
00
00
00
00
00
00
00
00
00
00
ENDCHAR
STARTCHAR U+0021
ENCODING 33
SWIDTH 360 0
DWIDTH 7 0
BBX 7 14 0 -3
BITMAP
00
00
30
78
78
30
30
00
00
30
30
00
00
00
ENDCHAR
STARTCHAR U+0022
ENCODING 34
SWIDTH 360 0
DWIDTH 7 0
BBX 7 14 0 -3
BITMAP
00
00
D8
D8
D8
D8
00
00
00
00
00
00
00
00
ENDCHAR
STARTCHAR U+0023
ENCODING 35
SWIDTH 360 0
DWIDTH 7 0
BBX 7 14 0 -3
BITMAP
00
00
48
48
FC
FC
48
48
FC
FC
48
48
00
00
ENDCHAR
STARTCHAR U+0024
ENCODING 36
SWIDTH 360 0
DWIDTH 7 0
BBX 7 14 0 -3
BITMAP
00
00
30
30
7C
C0
60
18
0C
F8
30
30
00
00
ENDCHAR
STARTCHAR U+0025
ENCODING 37
SWIDTH 360 0
DWIDTH 7 0
BBX 7 14 0 -3
BITMAP
00
00
00
60
D4
D8
70
38
74
B4
18
00
00
00
ENDCHAR
STARTCHAR U+0026
ENCODING 38
SWIDTH 360 0
DWIDTH 7 0
BBX 7 14 0 -3
BITMAP
00
00
00
70
D8
D8
70
DE
CC
CC
7E
00
00
00
ENDCHAR
STARTCHAR U+0027
ENCODING 39
SWIDTH 360 0
DWIDTH 7 0
BBX 7 14 0 -3
BITMAP
00
00
30
30
30
30
00
00
00
00
00
00
00
00
ENDCHAR
STARTCHAR U+0028
ENCODING 40
SWIDTH 360 0
DWIDTH 7 0
BBX 7 14 0 -3
BITMAP
00
00
18
30
30
60
60
60
60
60
30
30
18
00
ENDCHAR
STARTCHAR U+0029
ENCODING 41
SWIDTH 360 0
DWIDTH 7 0
BBX 7 14 0 -3
BITMAP
00
00
60
30
30
18
18
18
18
18
30
30
60
00
ENDCHAR
STARTCHAR U+002A
ENCODING 42
SWIDTH 360 0
DWIDTH 7 0
BBX 7 14 0 -3
BITMAP
00
00
00
00
00
6C
38
FE
38
6C
00
00
00
00
ENDCHAR
STARTCHAR U+002B
ENCODING 43
SWIDTH 360 0
DWIDTH 7 0
BBX 7 14 0 -3
BITMAP
00
00
00
00
00
30
30
FC
30
30
00
00
00
00
ENDCHAR
STARTCHAR U+002C
ENCODING 44
SWIDTH 360 0
DWIDTH 7 0
BBX 7 14 0 -3
BITMAP
00
00
00
00
00
00
00
00
00
70
70
30
30
60
ENDCHAR
STARTCHAR U+002D
ENCODING 45
SWIDTH 360 0
DWIDTH 7 0
BBX 7 14 0 -3
BITMAP
00
00
00
00
00
00
00
FC
00
00
00
00
00
00
ENDCHAR
STARTCHAR U+002E
ENCODING 46
SWIDTH 360 0
DWIDTH 7 0
BBX 7 14 0 -3
BITMAP
00
00
00
00
00
00
00
00
00
70
70
00
00
00
ENDCHAR
STARTCHAR U+002F
ENCODING 47
SWIDTH 360 0
DWIDTH 7 0
BBX 7 14 0 -3
BITMAP
00
00
0C
0C
18
18
30
30
60
60
C0
C0
00
00
ENDCHAR
STARTCHAR U+0030
ENCODING 48
SWIDTH 360 0
DWIDTH 7 0
BBX 7 14 0 -3
BITMAP
00
00
00
78
CC
DC
DC
EC
EC
CC
78
00
00
00
ENDCHAR
STARTCHAR U+0031
ENCODING 49
SWIDTH 360 0
DWIDTH 7 0
BBX 7 14 0 -3
BITMAP
00
00
00
30
70
F0
30
30
30
30
FC
00
00
00
ENDCHAR
STARTCHAR U+0032
ENCODING 50
SWIDTH 360 0
DWIDTH 7 0
BBX 7 14 0 -3
BITMAP
00
00
00
78
CC
0C
18
30
60
C0
FC
00
00
00
ENDCHAR
STARTCHAR U+0033
ENCODING 51
SWIDTH 360 0
DWIDTH 7 0
BBX 7 14 0 -3
BITMAP
00
00
00
FC
0C
18
38
0C
0C
CC
78
00
00
00
ENDCHAR
STARTCHAR U+0034
ENCODING 52
SWIDTH 360 0
DWIDTH 7 0
BBX 7 14 0 -3
BITMAP
00
00
00
18
38
58
98
FC
18
18
18
00
00
00
ENDCHAR
STARTCHAR U+0035
ENCODING 53
SWIDTH 360 0
DWIDTH 7 0
BBX 7 14 0 -3
BITMAP
00
00
00
FC
C0
C0
F8
0C
0C
CC
78
00
00
00
ENDCHAR
STARTCHAR U+0036
ENCODING 54
SWIDTH 360 0
DWIDTH 7 0
BBX 7 14 0 -3
BITMAP
00
00
00
38
60
C0
F8
CC
CC
CC
78
00
00
00
ENDCHAR
STARTCHAR U+0037
ENCODING 55
SWIDTH 360 0
DWIDTH 7 0
BBX 7 14 0 -3
BITMAP
00
00
00
FC
0C
18
18
30
30
60
60
00
00
00
ENDCHAR
STARTCHAR U+0038
ENCODING 56
SWIDTH 360 0
DWIDTH 7 0
BBX 7 14 0 -3
BITMAP
00
00
00
78
CC
CC
78
CC
CC
CC
78
00
00
00
ENDCHAR
STARTCHAR U+0039
ENCODING 57
SWIDTH 360 0
DWIDTH 7 0
BBX 7 14 0 -3
BITMAP
00
00
00
78
CC
CC
CC
7C
0C
18
70
00
00
00
ENDCHAR
STARTCHAR U+003A
ENCODING 58
SWIDTH 360 0
DWIDTH 7 0
BBX 7 14 0 -3
BITMAP
00
00
00
00
70
70
00
00
00
70
70
00
00
00
ENDCHAR
STARTCHAR U+003B
ENCODING 59
SWIDTH 360 0
DWIDTH 7 0
BBX 7 14 0 -3
BITMAP
00
00
00
00
70
70
00
00
00
70
70
30
30
60
ENDCHAR
STARTCHAR U+003C
ENCODING 60
SWIDTH 360 0
DWIDTH 7 0
BBX 7 14 0 -3
BITMAP
00
00
00
00
0C
18
30
60
30
18
0C
00
00
00
ENDCHAR
STARTCHAR U+003D
ENCODING 61
SWIDTH 360 0
DWIDTH 7 0
BBX 7 14 0 -3
BITMAP
00
00
00
00
00
FC
00
00
FC
00
00
00
00
00
ENDCHAR
STARTCHAR U+003E
ENCODING 62
SWIDTH 360 0
DWIDTH 7 0
BBX 7 14 0 -3
BITMAP
00
00
00
00
C0
60
30
18
30
60
C0
00
00
00
ENDCHAR
STARTCHAR U+003F
ENCODING 63
SWIDTH 360 0
DWIDTH 7 0
BBX 7 14 0 -3
BITMAP
00
00
78
8C
0C
18
30
00
00
30
30
00
00
00
ENDCHAR
STARTCHAR U+0040
ENCODING 64
SWIDTH 360 0
DWIDTH 7 0
BBX 7 14 0 -3
BITMAP
00
00
00
78
CC
CC
DC
DC
DC
C0
C0
7C
00
00
ENDCHAR
STARTCHAR U+0041
ENCODING 65
SWIDTH 360 0
DWIDTH 7 0
BBX 7 14 0 -3
BITMAP
00
00
00
30
78
CC
CC
FC
CC
CC
CC
00
00
00
ENDCHAR
STARTCHAR U+0042
ENCODING 66
SWIDTH 360 0
DWIDTH 7 0
BBX 7 14 0 -3
BITMAP
00
00
00
F8
CC
CC
F8
CC
CC
CC
F8
00
00
00
ENDCHAR
STARTCHAR U+0043
ENCODING 67
SWIDTH 360 0
DWIDTH 7 0
BBX 7 14 0 -3
BITMAP
00
00
00
3C
60
C0
C0
C0
C0
60
3C
00
00
00
ENDCHAR
STARTCHAR U+0044
ENCODING 68
SWIDTH 360 0
DWIDTH 7 0
BBX 7 14 0 -3
BITMAP
00
00
00
F0
D8
CC
CC
CC
CC
D8
F0
00
00
00
ENDCHAR
STARTCHAR U+0045
ENCODING 69
SWIDTH 360 0
DWIDTH 7 0
BBX 7 14 0 -3
BITMAP
00
00
00
FC
C0
C0
F8
C0
C0
C0
FC
00
00
00
ENDCHAR
STARTCHAR U+0046
ENCODING 70
SWIDTH 360 0
DWIDTH 7 0
BBX 7 14 0 -3
BITMAP
00
00
00
FC
C0
C0
F8
C0
C0
C0
C0
00
00
00
ENDCHAR
STARTCHAR U+0047
ENCODING 71
SWIDTH 360 0
DWIDTH 7 0
BBX 7 14 0 -3
BITMAP
00
00
00
3C
60
C0
C0
CC
CC
6C
3C
00
00
00
ENDCHAR
STARTCHAR U+0048
ENCODING 72
SWIDTH 360 0
DWIDTH 7 0
BBX 7 14 0 -3
BITMAP
00
00
00
CC
CC
CC
FC
CC
CC
CC
CC
00
00
00
ENDCHAR
STARTCHAR U+0049
ENCODING 73
SWIDTH 360 0
DWIDTH 7 0
BBX 7 14 0 -3
BITMAP
00
00
00
FC
30
30
30
30
30
30
FC
00
00
00
ENDCHAR
STARTCHAR U+004A
ENCODING 74
SWIDTH 360 0
DWIDTH 7 0
BBX 7 14 0 -3
BITMAP
00
00
00
0C
0C
0C
0C
0C
CC
CC
78
00
00
00
ENDCHAR
STARTCHAR U+004B
ENCODING 75
SWIDTH 360 0
DWIDTH 7 0
BBX 7 14 0 -3
BITMAP
00
00
00
CC
D8
F0
E0
E0
F0
D8
CC
00
00
00
ENDCHAR
STARTCHAR U+004C
ENCODING 76
SWIDTH 360 0
DWIDTH 7 0
BBX 7 14 0 -3
BITMAP
00
00
00
C0
C0
C0
C0
C0
C0
C0
FC
00
00
00
ENDCHAR
STARTCHAR U+004D
ENCODING 77
SWIDTH 360 0
DWIDTH 7 0
BBX 7 14 0 -3
BITMAP
00
00
00
CC
FC
FC
CC
CC
CC
CC
CC
00
00
00
ENDCHAR
STARTCHAR U+004E
ENCODING 78
SWIDTH 360 0
DWIDTH 7 0
BBX 7 14 0 -3
BITMAP
00
00
00
CC
CC
EC
FC
DC
CC
CC
CC
00
00
00
ENDCHAR
STARTCHAR U+004F
ENCODING 79
SWIDTH 360 0
DWIDTH 7 0
BBX 7 14 0 -3
BITMAP
00
00
00
78
CC
CC
CC
CC
CC
CC
78
00
00
00
ENDCHAR
STARTCHAR U+0050
ENCODING 80
SWIDTH 360 0
DWIDTH 7 0
BBX 7 14 0 -3
BITMAP
00
00
00
F8
CC
CC
CC
F8
C0
C0
C0
00
00
00
ENDCHAR
STARTCHAR U+0051
ENCODING 81
SWIDTH 360 0
DWIDTH 7 0
BBX 7 14 0 -3
BITMAP
00
00
00
78
CC
CC
CC
CC
CC
CC
78
1C
00
00
ENDCHAR
STARTCHAR U+0052
ENCODING 82
SWIDTH 360 0
DWIDTH 7 0
BBX 7 14 0 -3
BITMAP
00
00
00
F8
CC
CC
CC
F8
D8
CC
CC
00
00
00
ENDCHAR
STARTCHAR U+0053
ENCODING 83
SWIDTH 360 0
DWIDTH 7 0
BBX 7 14 0 -3
BITMAP
00
00
00
7C
C0
C0
70
18
0C
0C
F8
00
00
00
ENDCHAR
STARTCHAR U+0054
ENCODING 84
SWIDTH 360 0
DWIDTH 7 0
BBX 7 14 0 -3
BITMAP
00
00
00
FC
30
30
30
30
30
30
30
00
00
00
ENDCHAR
STARTCHAR U+0055
ENCODING 85
SWIDTH 360 0
DWIDTH 7 0
BBX 7 14 0 -3
BITMAP
00
00
00
CC
CC
CC
CC
CC
CC
CC
78
00
00
00
ENDCHAR
STARTCHAR U+0056
ENCODING 86
SWIDTH 360 0
DWIDTH 7 0
BBX 7 14 0 -3
BITMAP
00
00
00
CC
CC
CC
CC
CC
CC
78
30
00
00
00
ENDCHAR
STARTCHAR U+0057
ENCODING 87
SWIDTH 360 0
DWIDTH 7 0
BBX 7 14 0 -3
BITMAP
00
00
00
CC
CC
CC
CC
CC
FC
FC
CC
00
00
00
ENDCHAR
STARTCHAR U+0058
ENCODING 88
SWIDTH 360 0
DWIDTH 7 0
BBX 7 14 0 -3
BITMAP
00
00
00
CC
CC
78
30
30
78
CC
CC
00
00
00
ENDCHAR
STARTCHAR U+0059
ENCODING 89
SWIDTH 360 0
DWIDTH 7 0
BBX 7 14 0 -3
BITMAP
00
00
00
CC
CC
78
78
30
30
30
30
00
00
00
ENDCHAR
STARTCHAR U+005A
ENCODING 90
SWIDTH 360 0
DWIDTH 7 0
BBX 7 14 0 -3
BITMAP
00
00
00
FC
18
18
30
30
60
60
FC
00
00
00
ENDCHAR
STARTCHAR U+005B
ENCODING 91
SWIDTH 360 0
DWIDTH 7 0
BBX 7 14 0 -3
BITMAP
00
00
78
60
60
60
60
60
60
60
60
60
78
00
ENDCHAR
STARTCHAR U+005C
ENCODING 92
SWIDTH 360 0
DWIDTH 7 0
BBX 7 14 0 -3
BITMAP
00
00
C0
C0
60
60
30
30
18
18
0C
0C
00
00
ENDCHAR
STARTCHAR U+005D
ENCODING 93
SWIDTH 360 0
DWIDTH 7 0
BBX 7 14 0 -3
BITMAP
00
00
78
18
18
18
18
18
18
18
18
18
78
00
ENDCHAR
STARTCHAR U+005E
ENCODING 94
SWIDTH 360 0
DWIDTH 7 0
BBX 7 14 0 -3
BITMAP
00
00
00
30
78
CC
00
00
00
00
00
00
00
00
ENDCHAR
STARTCHAR U+005F
ENCODING 95
SWIDTH 360 0
DWIDTH 7 0
BBX 7 14 0 -3
BITMAP
00
00
00
00
00
00
00
00
00
00
00
00
FE
00
ENDCHAR
STARTCHAR U+0060
ENCODING 96
SWIDTH 360 0
DWIDTH 7 0
BBX 7 14 0 -3
BITMAP
00
00
60
30
18
00
00
00
00
00
00
00
00
00
ENDCHAR
STARTCHAR U+0061
ENCODING 97
SWIDTH 360 0
DWIDTH 7 0
BBX 7 14 0 -3
BITMAP
00
00
00
00
00
78
0C
7C
CC
CC
7C
00
00
00
ENDCHAR
STARTCHAR U+0062
ENCODING 98
SWIDTH 360 0
DWIDTH 7 0
BBX 7 14 0 -3
BITMAP
00
00
00
C0
C0
F8
CC
CC
CC
CC
F8
00
00
00
ENDCHAR
STARTCHAR U+0063
ENCODING 99
SWIDTH 360 0
DWIDTH 7 0
BBX 7 14 0 -3
BITMAP
00
00
00
00
00
7C
C0
C0
C0
C0
7C
00
00
00
ENDCHAR
STARTCHAR U+0064
ENCODING 100
SWIDTH 360 0
DWIDTH 7 0
BBX 7 14 0 -3
BITMAP
00
00
00
0C
0C
7C
CC
CC
CC
CC
7C
00
00
00
ENDCHAR
STARTCHAR U+0065
ENCODING 101
SWIDTH 360 0
DWIDTH 7 0
BBX 7 14 0 -3
BITMAP
00
00
00
00
00
78
CC
FC
C0
C0
7C
00
00
00
ENDCHAR
STARTCHAR U+0066
ENCODING 102
SWIDTH 360 0
DWIDTH 7 0
BBX 7 14 0 -3
BITMAP
00
00
00
3C
60
FC
60
60
60
60
60
00
00
00
ENDCHAR
STARTCHAR U+0067
ENCODING 103
SWIDTH 360 0
DWIDTH 7 0
BBX 7 14 0 -3
BITMAP
00
00
00
00
00
7C
CC
CC
78
C0
7C
C6
FC
00
ENDCHAR
STARTCHAR U+0068
ENCODING 104
SWIDTH 360 0
DWIDTH 7 0
BBX 7 14 0 -3
BITMAP
00
00
00
C0
C0
F8
CC
CC
CC
CC
CC
00
00
00
ENDCHAR
STARTCHAR U+0069
ENCODING 105
SWIDTH 360 0
DWIDTH 7 0
BBX 7 14 0 -3
BITMAP
00
00
30
30
00
F0
30
30
30
30
FC
00
00
00
ENDCHAR
STARTCHAR U+006A
ENCODING 106
SWIDTH 360 0
DWIDTH 7 0
BBX 7 14 0 -3
BITMAP
00
00
18
18
00
78
18
18
18
18
18
18
F0
00
ENDCHAR
STARTCHAR U+006B
ENCODING 107
SWIDTH 360 0
DWIDTH 7 0
BBX 7 14 0 -3
BITMAP
00
00
00
C0
C0
D8
F0
E0
F0
D8
CC
00
00
00
ENDCHAR
STARTCHAR U+006C
ENCODING 108
SWIDTH 360 0
DWIDTH 7 0
BBX 7 14 0 -3
BITMAP
00
00
00
F0
30
30
30
30
30
30
FC
00
00
00
ENDCHAR
STARTCHAR U+006D
ENCODING 109
SWIDTH 360 0
DWIDTH 7 0
BBX 7 14 0 -3
BITMAP
00
00
00
00
00
DC
FC
FC
CC
CC
CC
00
00
00
ENDCHAR
STARTCHAR U+006E
ENCODING 110
SWIDTH 360 0
DWIDTH 7 0
BBX 7 14 0 -3
BITMAP
00
00
00
00
00
F8
CC
CC
CC
CC
CC
00
00
00
ENDCHAR
STARTCHAR U+006F
ENCODING 111
SWIDTH 360 0
DWIDTH 7 0
BBX 7 14 0 -3
BITMAP
00
00
00
00
00
78
CC
CC
CC
CC
78
00
00
00
ENDCHAR
STARTCHAR U+0070
ENCODING 112
SWIDTH 360 0
DWIDTH 7 0
BBX 7 14 0 -3
BITMAP
00
00
00
00
00
F8
CC
CC
CC
CC
F8
C0
C0
00
ENDCHAR
STARTCHAR U+0071
ENCODING 113
SWIDTH 360 0
DWIDTH 7 0
BBX 7 14 0 -3
BITMAP
00
00
00
00
00
7C
CC
CC
CC
CC
7C
0C
0C
00
ENDCHAR
STARTCHAR U+0072
ENCODING 114
SWIDTH 360 0
DWIDTH 7 0
BBX 7 14 0 -3
BITMAP
00
00
00
00
00
DC
E0
C0
C0
C0
C0
00
00
00
ENDCHAR
STARTCHAR U+0073
ENCODING 115
SWIDTH 360 0
DWIDTH 7 0
BBX 7 14 0 -3
BITMAP
00
00
00
00
00
7C
C0
70
38
0C
F8
00
00
00
ENDCHAR
STARTCHAR U+0074
ENCODING 116
SWIDTH 360 0
DWIDTH 7 0
BBX 7 14 0 -3
BITMAP
00
00
00
60
60
FC
60
60
60
60
3C
00
00
00
ENDCHAR
STARTCHAR U+0075
ENCODING 117
SWIDTH 360 0
DWIDTH 7 0
BBX 7 14 0 -3
BITMAP
00
00
00
00
00
CC
CC
CC
CC
CC
7C
00
00
00
ENDCHAR
STARTCHAR U+0076
ENCODING 118
SWIDTH 360 0
DWIDTH 7 0
BBX 7 14 0 -3
BITMAP
00
00
00
00
00
CC
CC
CC
CC
78
30
00
00
00
ENDCHAR
STARTCHAR U+0077
ENCODING 119
SWIDTH 360 0
DWIDTH 7 0
BBX 7 14 0 -3
BITMAP
00
00
00
00
00
CC
CC
CC
FC
FC
CC
00
00
00
ENDCHAR
STARTCHAR U+0078
ENCODING 120
SWIDTH 360 0
DWIDTH 7 0
BBX 7 14 0 -3
BITMAP
00
00
00
00
00
CC
78
30
30
78
CC
00
00
00
ENDCHAR
STARTCHAR U+0079
ENCODING 121
SWIDTH 360 0
DWIDTH 7 0
BBX 7 14 0 -3
BITMAP
00
00
00
00
00
CC
CC
CC
CC
78
38
30
E0
00
ENDCHAR
STARTCHAR U+007A
ENCODING 122
SWIDTH 360 0
DWIDTH 7 0
BBX 7 14 0 -3
BITMAP
00
00
00
00
00
FC
18
30
30
60
FC
00
00
00
ENDCHAR
STARTCHAR U+007B
ENCODING 123
SWIDTH 360 0
DWIDTH 7 0
BBX 7 14 0 -3
BITMAP
00
00
1C
30
30
30
30
E0
30
30
30
30
1C
00
ENDCHAR
STARTCHAR U+007C
ENCODING 124
SWIDTH 360 0
DWIDTH 7 0
BBX 7 14 0 -3
BITMAP
00
00
30
30
30
30
30
30
30
30
30
30
00
00
ENDCHAR
STARTCHAR U+007D
ENCODING 125
SWIDTH 360 0
DWIDTH 7 0
BBX 7 14 0 -3
BITMAP
00
00
E0
30
30
30
30
1C
30
30
30
30
E0
00
ENDCHAR
STARTCHAR U+007E
ENCODING 126
SWIDTH 360 0
DWIDTH 7 0
BBX 7 14 0 -3
BITMAP
00
00
00
64
FC
98
00
00
00
00
00
00
00
00
ENDCHAR
STARTCHAR U+00A0
ENCODING 160
SWIDTH 360 0
DWIDTH 7 0
BBX 7 14 0 -3
BITMAP
00
00
00
00
00
00
00
00
00
00
00
00
00
00
ENDCHAR
STARTCHAR U+00A1
ENCODING 161
SWIDTH 360 0
DWIDTH 7 0
BBX 7 14 0 -3
BITMAP
00
00
00
00
30
30
00
00
30
30
78
78
30
00
ENDCHAR
STARTCHAR U+00A2
ENCODING 162
SWIDTH 360 0
DWIDTH 7 0
BBX 7 14 0 -3
BITMAP
00
00
18
18
7C
C0
C0
C0
C0
7C
30
30
00
00
ENDCHAR
STARTCHAR U+00A3
ENCODING 163
SWIDTH 360 0
DWIDTH 7 0
BBX 7 14 0 -3
BITMAP
00
00
00
38
6C
60
60
F8
60
60
FC
00
00
00
ENDCHAR
STARTCHAR U+00A4
ENCODING 164
SWIDTH 360 0
DWIDTH 7 0
BBX 7 14 0 -3
BITMAP
00
00
00
CC
78
CC
CC
CC
78
CC
00
00
00
00
ENDCHAR
STARTCHAR U+00A5
ENCODING 165
SWIDTH 360 0
DWIDTH 7 0
BBX 7 14 0 -3
BITMAP
00
00
00
CC
78
30
FC
30
FC
30
30
00
00
00
ENDCHAR
STARTCHAR U+00A6
ENCODING 166
SWIDTH 360 0
DWIDTH 7 0
BBX 7 14 0 -3
BITMAP
00
00
00
30
30
30
30
00
30
30
30
30
00
00
ENDCHAR
STARTCHAR U+00A7
ENCODING 167
SWIDTH 360 0
DWIDTH 7 0
BBX 7 14 0 -3
BITMAP
00
00
00
00
00
00
00
00
00
00
00
00
00
00
ENDCHAR
STARTCHAR U+00A8
ENCODING 168
SWIDTH 360 0
DWIDTH 7 0
BBX 7 14 0 -3
BITMAP
00
00
D8
D8
00
00
00
00
00
00
00
00
00
00
ENDCHAR
STARTCHAR U+00A9
ENCODING 169
SWIDTH 360 0
DWIDTH 7 0
BBX 7 14 0 -3
BITMAP
00
00
00
00
00
00
00
00
00
00
00
00
00
00
ENDCHAR
STARTCHAR U+00AA
ENCODING 170
SWIDTH 360 0
DWIDTH 7 0
BBX 7 14 0 -3
BITMAP
00
00
00
00
00
00
00
00
00
00
00
00
00
00
ENDCHAR
STARTCHAR U+00AB
ENCODING 171
SWIDTH 360 0
DWIDTH 7 0
BBX 7 14 0 -3
BITMAP
00
00
00
00
00
00
24
6C
D8
6C
24
00
00
00
ENDCHAR
STARTCHAR U+00AC
ENCODING 172
SWIDTH 360 0
DWIDTH 7 0
BBX 7 14 0 -3
BITMAP
00
00
00
00
00
00
00
00
00
00
00
00
00
00
ENDCHAR
STARTCHAR U+00AD
ENCODING 173
SWIDTH 360 0
DWIDTH 7 0
BBX 7 14 0 -3
BITMAP
00
00
00
00
00
00
00
FC
00
00
00
00
00
00
ENDCHAR
STARTCHAR U+00AE
ENCODING 174
SWIDTH 360 0
DWIDTH 7 0
BBX 7 14 0 -3
BITMAP
00
00
00
00
00
00
00
00
00
00
00
00
00
00
ENDCHAR
STARTCHAR U+00AF
ENCODING 175
SWIDTH 360 0
DWIDTH 7 0
BBX 7 14 0 -3
BITMAP
00
00
00
00
00
00
00
00
00
00
00
00
00
00
ENDCHAR
STARTCHAR U+00B0
ENCODING 176
SWIDTH 360 0
DWIDTH 7 0
BBX 7 14 0 -3
BITMAP
00
00
00
00
00
00
00
00
00
00
00
00
00
00
ENDCHAR
STARTCHAR U+00B1
ENCODING 177
SWIDTH 360 0
DWIDTH 7 0
BBX 7 14 0 -3
BITMAP
00
00
00
00
00
00
00
00
00
00
00
00
00
00
ENDCHAR
STARTCHAR U+00B2
ENCODING 178
SWIDTH 360 0
DWIDTH 7 0
BBX 7 14 0 -3
BITMAP
00
00
00
00
00
00
00
00
00
00
00
00
00
00
ENDCHAR
STARTCHAR U+00B3
ENCODING 179
SWIDTH 360 0
DWIDTH 7 0
BBX 7 14 0 -3
BITMAP
00
00
00
00
00
00
00
00
00
00
00
00
00
00
ENDCHAR
STARTCHAR U+00B4
ENCODING 180
SWIDTH 360 0
DWIDTH 7 0
BBX 7 14 0 -3
BITMAP
00
00
18
30
00
00
00
00
00
00
00
00
00
00
ENDCHAR
STARTCHAR U+00B5
ENCODING 181
SWIDTH 360 0
DWIDTH 7 0
BBX 7 14 0 -3
BITMAP
00
00
00
00
00
00
00
00
00
00
00
00
00
00
ENDCHAR
STARTCHAR U+00B6
ENCODING 182
SWIDTH 360 0
DWIDTH 7 0
BBX 7 14 0 -3
BITMAP
00
00
00
00
00
00
00
00
00
00
00
00
00
00
ENDCHAR
STARTCHAR U+00B7
ENCODING 183
SWIDTH 360 0
DWIDTH 7 0
BBX 7 14 0 -3
BITMAP
00
00
00
00
00
00
00
00
00
00
00
00
00
00
ENDCHAR
STARTCHAR U+00B8
ENCODING 184
SWIDTH 360 0
DWIDTH 7 0
BBX 7 14 0 -3
BITMAP
00
00
00
00
00
00
00
00
00
00
00
30
70
00
ENDCHAR
STARTCHAR U+00B9
ENCODING 185
SWIDTH 360 0
DWIDTH 7 0
BBX 7 14 0 -3
BITMAP
00
00
00
00
00
00
00
00
00
00
00
00
00
00
ENDCHAR
STARTCHAR U+00BA
ENCODING 186
SWIDTH 360 0
DWIDTH 7 0
BBX 7 14 0 -3
BITMAP
00
00
00
00
00
00
00
00
00
00
00
00
00
00
ENDCHAR
STARTCHAR U+00BB
ENCODING 187
SWIDTH 360 0
DWIDTH 7 0
BBX 7 14 0 -3
BITMAP
00
00
00
00
00
00
90
D8
6C
D8
90
00
00
00
ENDCHAR
STARTCHAR U+00BC
ENCODING 188
SWIDTH 360 0
DWIDTH 7 0
BBX 7 14 0 -3
BITMAP
00
00
00
00
00
00
00
00
00
00
00
00
00
00
ENDCHAR
STARTCHAR U+00BD
ENCODING 189
SWIDTH 360 0
DWIDTH 7 0
BBX 7 14 0 -3
BITMAP
00
00
00
00
00
00
00
00
00
00
00
00
00
00
ENDCHAR
STARTCHAR U+00BE
ENCODING 190
SWIDTH 360 0
DWIDTH 7 0
BBX 7 14 0 -3
BITMAP
00
00
00
00
00
00
00
00
00
00
00
00
00
00
ENDCHAR
STARTCHAR U+00BF
ENCODING 191
SWIDTH 360 0
DWIDTH 7 0
BBX 7 14 0 -3
BITMAP
00
00
00
00
30
30
00
00
30
60
C0
C4
78
00
ENDCHAR
STARTCHAR U+00C0
ENCODING 192
SWIDTH 360 0
DWIDTH 7 0
BBX 7 14 0 -3
BITMAP
00
60
30
00
30
78
CC
CC
FC
CC
CC
00
00
00
ENDCHAR
STARTCHAR U+00C1
ENCODING 193
SWIDTH 360 0
DWIDTH 7 0
BBX 7 14 0 -3
BITMAP
00
18
30
00
30
78
CC
CC
FC
CC
CC
00
00
00
ENDCHAR
STARTCHAR U+00C2
ENCODING 194
SWIDTH 360 0
DWIDTH 7 0
BBX 7 14 0 -3
BITMAP
00
70
D8
00
30
78
CC
CC
FC
CC
CC
00
00
00
ENDCHAR
STARTCHAR U+00C3
ENCODING 195
SWIDTH 360 0
DWIDTH 7 0
BBX 7 14 0 -3
BITMAP
00
74
B8
00
30
78
CC
CC
FC
CC
CC
00
00
00
ENDCHAR
STARTCHAR U+00C4
ENCODING 196
SWIDTH 360 0
DWIDTH 7 0
BBX 7 14 0 -3
BITMAP
00
CC
CC
00
30
78
CC
CC
FC
CC
CC
00
00
00
ENDCHAR
STARTCHAR U+00C5
ENCODING 197
SWIDTH 360 0
DWIDTH 7 0
BBX 7 14 0 -3
BITMAP
00
78
CC
78
30
78
CC
CC
FC
CC
CC
00
00
00
ENDCHAR
STARTCHAR U+00C6
ENCODING 198
SWIDTH 360 0
DWIDTH 7 0
BBX 7 14 0 -3
BITMAP
00
00
00
3C
78
D8
D8
FC
D8
D8
DC
00
00
00
ENDCHAR
STARTCHAR U+00C7
ENCODING 199
SWIDTH 360 0
DWIDTH 7 0
BBX 7 14 0 -3
BITMAP
00
00
00
3C
60
C0
C0
C0
C0
60
3C
18
38
00
ENDCHAR
STARTCHAR U+00C8
ENCODING 200
SWIDTH 360 0
DWIDTH 7 0
BBX 7 14 0 -3
BITMAP
00
60
30
00
FC
C0
C0
F8
C0
C0
FC
00
00
00
ENDCHAR
STARTCHAR U+00C9
ENCODING 201
SWIDTH 360 0
DWIDTH 7 0
BBX 7 14 0 -3
BITMAP
00
18
30
00
FC
C0
C0
F8
C0
C0
FC
00
00
00
ENDCHAR
STARTCHAR U+00CA
ENCODING 202
SWIDTH 360 0
DWIDTH 7 0
BBX 7 14 0 -3
BITMAP
00
70
D8
00
FC
C0
C0
F8
C0
C0
FC
00
00
00
ENDCHAR
STARTCHAR U+00CB
ENCODING 203
SWIDTH 360 0
DWIDTH 7 0
BBX 7 14 0 -3
BITMAP
00
CC
CC
00
FC
C0
C0
F8
C0
C0
FC
00
00
00
ENDCHAR
STARTCHAR U+00CC
ENCODING 204
SWIDTH 360 0
DWIDTH 7 0
BBX 7 14 0 -3
BITMAP
00
60
30
00
FC
30
30
30
30
30
FC
00
00
00
ENDCHAR
STARTCHAR U+00CD
ENCODING 205
SWIDTH 360 0
DWIDTH 7 0
BBX 7 14 0 -3
BITMAP
00
18
30
00
FC
30
30
30
30
30
FC
00
00
00
ENDCHAR
STARTCHAR U+00CE
ENCODING 206
SWIDTH 360 0
DWIDTH 7 0
BBX 7 14 0 -3
BITMAP
00
70
D8
00
FC
30
30
30
30
30
FC
00
00
00
ENDCHAR
STARTCHAR U+00CF
ENCODING 207
SWIDTH 360 0
DWIDTH 7 0
BBX 7 14 0 -3
BITMAP
00
CC
CC
00
FC
30
30
30
30
30
FC
00
00
00
ENDCHAR
STARTCHAR U+00D0
ENCODING 208
SWIDTH 360 0
DWIDTH 7 0
BBX 7 14 0 -3
BITMAP
00
00
00
F8
6C
6C
EC
6C
6C
68
F0
00
00
00
ENDCHAR
STARTCHAR U+00D1
ENCODING 209
SWIDTH 360 0
DWIDTH 7 0
BBX 7 14 0 -3
BITMAP
00
74
B8
00
CC
CC
EC
FC
DC
CC
CC
00
00
00
ENDCHAR
STARTCHAR U+00D2
ENCODING 210
SWIDTH 360 0
DWIDTH 7 0
BBX 7 14 0 -3
BITMAP
00
60
30
00
78
CC
CC
CC
CC
CC
78
00
00
00
ENDCHAR
STARTCHAR U+00D3
ENCODING 211
SWIDTH 360 0
DWIDTH 7 0
BBX 7 14 0 -3
BITMAP
00
18
30
00
78
CC
CC
CC
CC
CC
78
00
00
00
ENDCHAR
STARTCHAR U+00D4
ENCODING 212
SWIDTH 360 0
DWIDTH 7 0
BBX 7 14 0 -3
BITMAP
00
70
D8
00
78
CC
CC
CC
CC
CC
78
00
00
00
ENDCHAR
STARTCHAR U+00D5
ENCODING 213
SWIDTH 360 0
DWIDTH 7 0
BBX 7 14 0 -3
BITMAP
00
74
B8
00
78
CC
CC
CC
CC
CC
78
00
00
00
ENDCHAR
STARTCHAR U+00D6
ENCODING 214
SWIDTH 360 0
DWIDTH 7 0
BBX 7 14 0 -3
BITMAP
00
CC
CC
00
78
CC
CC
CC
CC
CC
78
00
00
00
ENDCHAR
STARTCHAR U+00D7
ENCODING 215
SWIDTH 360 0
DWIDTH 7 0
BBX 7 14 0 -3
BITMAP
00
00
00
00
00
CC
78
30
78
CC
00
00
00
00
ENDCHAR
STARTCHAR U+00D8
ENCODING 216
SWIDTH 360 0
DWIDTH 7 0
BBX 7 14 0 -3
BITMAP
00
00
08
78
CC
DC
DC
EC
EC
CC
78
40
00
00
ENDCHAR
STARTCHAR U+00D9
ENCODING 217
SWIDTH 360 0
DWIDTH 7 0
BBX 7 14 0 -3
BITMAP
00
60
30
00
CC
CC
CC
CC
CC
CC
78
00
00
00
ENDCHAR
STARTCHAR U+00DA
ENCODING 218
SWIDTH 360 0
DWIDTH 7 0
BBX 7 14 0 -3
BITMAP
00
18
30
00
CC
CC
CC
CC
CC
CC
78
00
00
00
ENDCHAR
STARTCHAR U+00DB
ENCODING 219
SWIDTH 360 0
DWIDTH 7 0
BBX 7 14 0 -3
BITMAP
00
70
D8
00
CC
CC
CC
CC
CC
CC
78
00
00
00
ENDCHAR
STARTCHAR U+00DC
ENCODING 220
SWIDTH 360 0
DWIDTH 7 0
BBX 7 14 0 -3
BITMAP
00
CC
CC
00
CC
CC
CC
CC
CC
CC
78
00
00
00
ENDCHAR
STARTCHAR U+00DD
ENCODING 221
SWIDTH 360 0
DWIDTH 7 0
BBX 7 14 0 -3
BITMAP
00
18
30
00
CC
CC
78
30
30
30
30
00
00
00
ENDCHAR
STARTCHAR U+00DE
ENCODING 222
SWIDTH 360 0
DWIDTH 7 0
BBX 7 14 0 -3
BITMAP
00
00
00
C0
F8
CC
CC
CC
CC
F8
C0
00
00
00
ENDCHAR
STARTCHAR U+00DF
ENCODING 223
SWIDTH 360 0
DWIDTH 7 0
BBX 7 14 0 -3
BITMAP
00
00
00
78
CC
CC
D8
CC
CC
CC
D8
00
00
00
ENDCHAR
STARTCHAR U+00E0
ENCODING 224
SWIDTH 360 0
DWIDTH 7 0
BBX 7 14 0 -3
BITMAP
00
00
60
30
00
78
0C
7C
CC
CC
7C
00
00
00
ENDCHAR
STARTCHAR U+00E1
ENCODING 225
SWIDTH 360 0
DWIDTH 7 0
BBX 7 14 0 -3
BITMAP
00
00
18
30
00
78
0C
7C
CC
CC
7C
00
00
00
ENDCHAR
STARTCHAR U+00E2
ENCODING 226
SWIDTH 360 0
DWIDTH 7 0
BBX 7 14 0 -3
BITMAP
00
00
38
6C
00
78
0C
7C
CC
CC
7C
00
00
00
ENDCHAR
STARTCHAR U+00E3
ENCODING 227
SWIDTH 360 0
DWIDTH 7 0
BBX 7 14 0 -3
BITMAP
00
00
74
B8
00
78
0C
7C
CC
CC
7C
00
00
00
ENDCHAR
STARTCHAR U+00E4
ENCODING 228
SWIDTH 360 0
DWIDTH 7 0
BBX 7 14 0 -3
BITMAP
00
00
6C
6C
00
78
0C
7C
CC
CC
7C
00
00
00
ENDCHAR
STARTCHAR U+00E5
ENCODING 229
SWIDTH 360 0
DWIDTH 7 0
BBX 7 14 0 -3
BITMAP
00
38
6C
38
00
78
0C
7C
CC
CC
7C
00
00
00
ENDCHAR
STARTCHAR U+00E6
ENCODING 230
SWIDTH 360 0
DWIDTH 7 0
BBX 7 14 0 -3
BITMAP
00
00
00
00
00
68
34
7C
B0
B0
5C
00
00
00
ENDCHAR
STARTCHAR U+00E7
ENCODING 231
SWIDTH 360 0
DWIDTH 7 0
BBX 7 14 0 -3
BITMAP
00
00
00
00
00
7C
C0
C0
C0
C0
7C
30
70
00
ENDCHAR
STARTCHAR U+00E8
ENCODING 232
SWIDTH 360 0
DWIDTH 7 0
BBX 7 14 0 -3
BITMAP
00
00
60
30
00
78
CC
FC
C0
C0
7C
00
00
00
ENDCHAR
STARTCHAR U+00E9
ENCODING 233
SWIDTH 360 0
DWIDTH 7 0
BBX 7 14 0 -3
BITMAP
00
00
18
30
00
78
CC
FC
C0
C0
7C
00
00
00
ENDCHAR
STARTCHAR U+00EA
ENCODING 234
SWIDTH 360 0
DWIDTH 7 0
BBX 7 14 0 -3
BITMAP
00
00
70
D8
00
78
CC
FC
C0
C0
7C
00
00
00
ENDCHAR
STARTCHAR U+00EB
ENCODING 235
SWIDTH 360 0
DWIDTH 7 0
BBX 7 14 0 -3
BITMAP
00
00
D8
D8
00
78
CC
FC
C0
C0
7C
00
00
00
ENDCHAR
STARTCHAR U+00EC
ENCODING 236
SWIDTH 360 0
DWIDTH 7 0
BBX 7 14 0 -3
BITMAP
00
00
60
30
00
F0
30
30
30
30
FC
00
00
00
ENDCHAR
STARTCHAR U+00ED
ENCODING 237
SWIDTH 360 0
DWIDTH 7 0
BBX 7 14 0 -3
BITMAP
00
00
18
30
00
F0
30
30
30
30
FC
00
00
00
ENDCHAR
STARTCHAR U+00EE
ENCODING 238
SWIDTH 360 0
DWIDTH 7 0
BBX 7 14 0 -3
BITMAP
00
00
70
D8
00
F0
30
30
30
30
FC
00
00
00
ENDCHAR
STARTCHAR U+00EF
ENCODING 239
SWIDTH 360 0
DWIDTH 7 0
BBX 7 14 0 -3
BITMAP
00
00
D8
D8
00
F0
30
30
30
30
FC
00
00
00
ENDCHAR
STARTCHAR U+00F0
ENCODING 240
SWIDTH 360 0
DWIDTH 7 0
BBX 7 14 0 -3
BITMAP
00
34
18
78
0C
7C
CC
CC
CC
CC
78
00
00
00
ENDCHAR
STARTCHAR U+00F1
ENCODING 241
SWIDTH 360 0
DWIDTH 7 0
BBX 7 14 0 -3
BITMAP
00
00
74
B8
00
F8
CC
CC
CC
CC
CC
00
00
00
ENDCHAR
STARTCHAR U+00F2
ENCODING 242
SWIDTH 360 0
DWIDTH 7 0
BBX 7 14 0 -3
BITMAP
00
00
60
30
00
78
CC
CC
CC
CC
78
00
00
00
ENDCHAR
STARTCHAR U+00F3
ENCODING 243
SWIDTH 360 0
DWIDTH 7 0
BBX 7 14 0 -3
BITMAP
00
00
18
30
00
78
CC
CC
CC
CC
78
00
00
00
ENDCHAR
STARTCHAR U+00F4
ENCODING 244
SWIDTH 360 0
DWIDTH 7 0
BBX 7 14 0 -3
BITMAP
00
00
70
D8
00
78
CC
CC
CC
CC
78
00
00
00
ENDCHAR
STARTCHAR U+00F5
ENCODING 245
SWIDTH 360 0
DWIDTH 7 0
BBX 7 14 0 -3
BITMAP
00
00
74
B8
00
78
CC
CC
CC
CC
78
00
00
00
ENDCHAR
STARTCHAR U+00F6
ENCODING 246
SWIDTH 360 0
DWIDTH 7 0
BBX 7 14 0 -3
BITMAP
00
00
6C
6C
00
78
CC
CC
CC
CC
78
00
00
00
ENDCHAR
STARTCHAR U+00F7
ENCODING 247
SWIDTH 360 0
DWIDTH 7 0
BBX 7 14 0 -3
BITMAP
00
00
00
00
30
30
00
FC
00
30
30
00
00
00
ENDCHAR
STARTCHAR U+00F8
ENCODING 248
SWIDTH 360 0
DWIDTH 7 0
BBX 7 14 0 -3
BITMAP
00
00
00
00
08
78
CC
DC
EC
CC
78
40
00
00
ENDCHAR
STARTCHAR U+00F9
ENCODING 249
SWIDTH 360 0
DWIDTH 7 0
BBX 7 14 0 -3
BITMAP
00
00
60
30
00
CC
CC
CC
CC
CC
7C
00
00
00
ENDCHAR
STARTCHAR U+00FA
ENCODING 250
SWIDTH 360 0
DWIDTH 7 0
BBX 7 14 0 -3
BITMAP
00
00
18
30
00
CC
CC
CC
CC
CC
7C
00
00
00
ENDCHAR
STARTCHAR U+00FB
ENCODING 251
SWIDTH 360 0
DWIDTH 7 0
BBX 7 14 0 -3
BITMAP
00
00
70
D8
00
CC
CC
CC
CC
CC
7C
00
00
00
ENDCHAR
STARTCHAR U+00FC
ENCODING 252
SWIDTH 360 0
DWIDTH 7 0
BBX 7 14 0 -3
BITMAP
00
00
6C
6C
00
CC
CC
CC
CC
CC
7C
00
00
00
ENDCHAR
STARTCHAR U+00FD
ENCODING 253
SWIDTH 360 0
DWIDTH 7 0
BBX 7 14 0 -3
BITMAP
00
00
18
30
00
CC
CC
CC
CC
78
38
30
E0
00
ENDCHAR
STARTCHAR U+00FE
ENCODING 254
SWIDTH 360 0
DWIDTH 7 0
BBX 7 14 0 -3
BITMAP
00
00
00
C0
C0
F8
CC
CC
CC
CC
F8
C0
C0
00
ENDCHAR
STARTCHAR U+00FF
ENCODING 255
SWIDTH 360 0
DWIDTH 7 0
BBX 7 14 0 -3
BITMAP
00
00
6C
6C
00
CC
CC
CC
CC
78
38
30
E0
00
ENDCHAR
STARTCHAR U+0041
ENCODING 256
SWIDTH 360 0
DWIDTH 7 0
BBX 7 14 0 -3
BITMAP
00
78
00
30
78
CC
CC
FC
CC
CC
CC
00
00
00
ENDCHAR
STARTCHAR U+0061
ENCODING 257
SWIDTH 360 0
DWIDTH 7 0
BBX 7 14 0 -3
BITMAP
00
00
00
78
00
78
0C
7C
CC
CC
7C
00
00
00
ENDCHAR
STARTCHAR U+0041
ENCODING 258
SWIDTH 360 0
DWIDTH 7 0
BBX 7 14 0 -3
BITMAP
6C
38
00
30
78
CC
CC
FC
CC
CC
CC
00
00
00
ENDCHAR
STARTCHAR U+0061
ENCODING 259
SWIDTH 360 0
DWIDTH 7 0
BBX 7 14 0 -3
BITMAP
00
00
6C
38
00
78
0C
7C
CC
CC
7C
00
00
00
ENDCHAR
STARTCHAR U+0041
ENCODING 260
SWIDTH 360 0
DWIDTH 7 0
BBX 7 14 0 -3
BITMAP
00
00
00
30
78
CC
CC
FC
CC
CC
CC
0C
06
00
ENDCHAR
STARTCHAR U+0061
ENCODING 261
SWIDTH 360 0
DWIDTH 7 0
BBX 7 14 0 -3
BITMAP
00
00
00
00
00
78
0C
7C
CC
CC
7C
18
0C
00
ENDCHAR
STARTCHAR U+0043
ENCODING 262
SWIDTH 360 0
DWIDTH 7 0
BBX 7 14 0 -3
BITMAP
0C
18
00
3C
60
C0
C0
C0
C0
60
3C
00
00
00
ENDCHAR
STARTCHAR U+0063
ENCODING 263
SWIDTH 360 0
DWIDTH 7 0
BBX 7 14 0 -3
BITMAP
00
00
18
30
00
7C
C0
C0
C0
C0
7C
00
00
00
ENDCHAR
STARTCHAR U+0043
ENCODING 264
SWIDTH 360 0
DWIDTH 7 0
BBX 7 14 0 -3
BITMAP
38
6C
00
3C
60
C0
C0
C0
C0
60
3C
00
00
00
ENDCHAR
STARTCHAR U+0063
ENCODING 265
SWIDTH 360 0
DWIDTH 7 0
BBX 7 14 0 -3
BITMAP
00
00
38
6C
00
7C
C0
C0
C0
C0
7C
00
00
00
ENDCHAR
STARTCHAR U+0043
ENCODING 266
SWIDTH 360 0
DWIDTH 7 0
BBX 7 14 0 -3
BITMAP
10
10
00
3C
60
C0
C0
C0
C0
60
3C
00
00
00
ENDCHAR
STARTCHAR U+0063
ENCODING 267
SWIDTH 360 0
DWIDTH 7 0
BBX 7 14 0 -3
BITMAP
00
00
10
10
00
7C
C0
C0
C0
C0
7C
00
00
00
ENDCHAR
STARTCHAR U+0043
ENCODING 268
SWIDTH 360 0
DWIDTH 7 0
BBX 7 14 0 -3
BITMAP
6C
38
00
3C
60
C0
C0
C0
C0
60
3C
00
00
00
ENDCHAR
STARTCHAR U+0063
ENCODING 269
SWIDTH 360 0
DWIDTH 7 0
BBX 7 14 0 -3
BITMAP
00
00
6C
38
00
7C
C0
C0
C0
C0
7C
00
00
00
ENDCHAR
STARTCHAR U+0044
ENCODING 270
SWIDTH 360 0
DWIDTH 7 0
BBX 7 14 0 -3
BITMAP
D8
70
00
F0
D8
CC
CC
CC
CC
D8
F0
00
00
00
ENDCHAR
STARTCHAR U+0064
ENCODING 271
SWIDTH 360 0
DWIDTH 7 0
BBX 7 14 0 -3
BITMAP
D8
70
00
0C
0C
7C
CC
CC
CC
CC
7C
00
00
00
ENDCHAR
STARTCHAR U+0044
ENCODING 272
SWIDTH 360 0
DWIDTH 7 0
BBX 7 14 0 -3
BITMAP
00
00
00
F0
D8
CC
EC
EC
CC
D8
F0
00
00
00
ENDCHAR
STARTCHAR U+0064
ENCODING 273
SWIDTH 360 0
DWIDTH 7 0
BBX 7 14 0 -3
BITMAP
00
00
00
1E
0C
7C
CC
CC
CC
CC
7C
00
00
00
ENDCHAR
STARTCHAR U+0045
ENCODING 274
SWIDTH 360 0
DWIDTH 7 0
BBX 7 14 0 -3
BITMAP
00
78
00
FC
C0
C0
F8
C0
C0
C0
FC
00
00
00
ENDCHAR
STARTCHAR U+0065
ENCODING 275
SWIDTH 360 0
DWIDTH 7 0
BBX 7 14 0 -3
BITMAP
00
00
00
78
00
78
CC
FC
C0
C0
7C
00
00
00
ENDCHAR
STARTCHAR U+0045
ENCODING 276
SWIDTH 360 0
DWIDTH 7 0
BBX 7 14 0 -3
BITMAP
D8
70
00
FC
C0
C0
F8
C0
C0
C0
FC
00
00
00
ENDCHAR
STARTCHAR U+0065
ENCODING 277
SWIDTH 360 0
DWIDTH 7 0
BBX 7 14 0 -3
BITMAP
00
00
6C
38
00
78
CC
FC
C0
C0
7C
00
00
00
ENDCHAR
STARTCHAR U+0045
ENCODING 278
SWIDTH 360 0
DWIDTH 7 0
BBX 7 14 0 -3
BITMAP
10
10
00
FC
C0
C0
F8
C0
C0
C0
FC
00
00
00
ENDCHAR
STARTCHAR U+0065
ENCODING 279
SWIDTH 360 0
DWIDTH 7 0
BBX 7 14 0 -3
BITMAP
00
00
10
10
00
78
CC
FC
C0
C0
7C
00
00
00
ENDCHAR
STARTCHAR U+0045
ENCODING 280
SWIDTH 360 0
DWIDTH 7 0
BBX 7 14 0 -3
BITMAP
00
00
00
FC
C0
C0
F8
C0
C0
C0
FC
18
0C
00
ENDCHAR
STARTCHAR U+0065
ENCODING 281
SWIDTH 360 0
DWIDTH 7 0
BBX 7 14 0 -3
BITMAP
00
00
00
00
00
78
CC
FC
C0
C0
7C
18
0C
00
ENDCHAR
STARTCHAR U+0045
ENCODING 282
SWIDTH 360 0
DWIDTH 7 0
BBX 7 14 0 -3
BITMAP
D8
70
00
FC
C0
C0
F8
C0
C0
C0
FC
00
00
00
ENDCHAR
STARTCHAR U+0065
ENCODING 283
SWIDTH 360 0
DWIDTH 7 0
BBX 7 14 0 -3
BITMAP
00
00
6C
38
00
78
CC
FC
C0
C0
7C
00
00
00
ENDCHAR
STARTCHAR U+0047
ENCODING 284
SWIDTH 360 0
DWIDTH 7 0
BBX 7 14 0 -3
BITMAP
38
6C
00
3C
60
C0
C0
CC
CC
6C
3C
00
00
00
ENDCHAR
STARTCHAR U+0067
ENCODING 285
SWIDTH 360 0
DWIDTH 7 0
BBX 7 14 0 -3
BITMAP
00
00
38
6C
00
7C
CC
CC
78
C0
7C
C6
FC
00
ENDCHAR
STARTCHAR U+0047
ENCODING 286
SWIDTH 360 0
DWIDTH 7 0
BBX 7 14 0 -3
BITMAP
6C
38
00
3C
60
C0
C0
CC
CC
6C
3C
00
00
00
ENDCHAR
STARTCHAR U+0067
ENCODING 287
SWIDTH 360 0
DWIDTH 7 0
BBX 7 14 0 -3
BITMAP
00
00
6C
38
00
7C
CC
CC
78
C0
7C
C6
FC
00
ENDCHAR
STARTCHAR U+0047
ENCODING 288
SWIDTH 360 0
DWIDTH 7 0
BBX 7 14 0 -3
BITMAP
10
10
00
3C
60
C0
C0
CC
CC
6C
3C
00
00
00
ENDCHAR
STARTCHAR U+0067
ENCODING 289
SWIDTH 360 0
DWIDTH 7 0
BBX 7 14 0 -3
BITMAP
00
00
10
10
00
7C
CC
CC
78
C0
7C
C6
FC
00
ENDCHAR
STARTCHAR U+0047
ENCODING 290
SWIDTH 360 0
DWIDTH 7 0
BBX 7 14 0 -3
BITMAP
00
00
00
3C
60
C0
C0
CC
CC
6C
3C
18
30
00
ENDCHAR
STARTCHAR U+0067
ENCODING 291
SWIDTH 360 0
DWIDTH 7 0
BBX 7 14 0 -3
BITMAP
00
00
18
30
00
7C
CC
CC
78
C0
7C
C6
FC
00
ENDCHAR
STARTCHAR U+0048
ENCODING 292
SWIDTH 360 0
DWIDTH 7 0
BBX 7 14 0 -3
BITMAP
38
6C
00
CC
CC
CC
FC
CC
CC
CC
CC
00
00
00
ENDCHAR
STARTCHAR U+0068
ENCODING 293
SWIDTH 360 0
DWIDTH 7 0
BBX 7 14 0 -3
BITMAP
38
6C
00
C0
C0
F8
CC
CC
CC
CC
CC
00
00
00
ENDCHAR
STARTCHAR U+0048
ENCODING 294
SWIDTH 360 0
DWIDTH 7 0
BBX 7 14 0 -3
BITMAP
00
00
00
CC
FE
CC
FC
CC
CC
CC
CC
00
00
00
ENDCHAR
STARTCHAR U+0068
ENCODING 295
SWIDTH 360 0
DWIDTH 7 0
BBX 7 14 0 -3
BITMAP
00
00
00
F8
C0
F8
CC
CC
CC
CC
CC
00
00
00
ENDCHAR
STARTCHAR U+0049
ENCODING 296
SWIDTH 360 0
DWIDTH 7 0
BBX 7 14 0 -3
BITMAP
74
B8
00
FC
30
30
30
30
30
30
FC
00
00
00
ENDCHAR
STARTCHAR U+0069
ENCODING 297
SWIDTH 360 0
DWIDTH 7 0
BBX 7 14 0 -3
BITMAP
00
00
74
B8
00
F0
30
30
30
30
FC
00
00
00
ENDCHAR
STARTCHAR U+0049
ENCODING 298
SWIDTH 360 0
DWIDTH 7 0
BBX 7 14 0 -3
BITMAP
00
78
00
FC
30
30
30
30
30
30
FC
00
00
00
ENDCHAR
STARTCHAR U+0069
ENCODING 299
SWIDTH 360 0
DWIDTH 7 0
BBX 7 14 0 -3
BITMAP
00
00
00
78
00
F0
30
30
30
30
FC
00
00
00
ENDCHAR
STARTCHAR U+0049
ENCODING 300
SWIDTH 360 0
DWIDTH 7 0
BBX 7 14 0 -3
BITMAP
6C
38
00
FC
30
30
30
30
30
30
FC
00
00
00
ENDCHAR
STARTCHAR U+0069
ENCODING 301
SWIDTH 360 0
DWIDTH 7 0
BBX 7 14 0 -3
BITMAP
00
00
6C
38
00
F0
30
30
30
30
FC
00
00
00
ENDCHAR
STARTCHAR U+0049
ENCODING 302
SWIDTH 360 0
DWIDTH 7 0
BBX 7 14 0 -3
BITMAP
00
00
00
FC
30
30
30
30
30
30
FC
30
18
00
ENDCHAR
STARTCHAR U+0069
ENCODING 303
SWIDTH 360 0
DWIDTH 7 0
BBX 7 14 0 -3
BITMAP
00
00
00
00
00
F0
30
30
30
30
FC
30
18
00
ENDCHAR
STARTCHAR U+0049
ENCODING 304
SWIDTH 360 0
DWIDTH 7 0
BBX 7 14 0 -3
BITMAP
10
10
00
FC
30
30
30
30
30
30
FC
00
00
00
ENDCHAR
STARTCHAR U+0069
ENCODING 305
SWIDTH 360 0
DWIDTH 7 0
BBX 7 14 0 -3
BITMAP
00
00
10
10
00
F0
30
30
30
30
FC
00
00
00
ENDCHAR
STARTCHAR U+004A
ENCODING 308
SWIDTH 360 0
DWIDTH 7 0
BBX 7 14 0 -3
BITMAP
38
6C
00
0C
0C
0C
0C
0C
CC
CC
78
00
00
00
ENDCHAR
STARTCHAR U+006A
ENCODING 309
SWIDTH 360 0
DWIDTH 7 0
BBX 7 14 0 -3
BITMAP
00
00
38
6C
00
78
18
18
18
18
18
18
F0
00
ENDCHAR
STARTCHAR U+004B
ENCODING 310
SWIDTH 360 0
DWIDTH 7 0
BBX 7 14 0 -3
BITMAP
00
00
00
CC
D8
F0
E0
E0
F0
D8
CC
60
C0
00
ENDCHAR
STARTCHAR U+006B
ENCODING 311
SWIDTH 360 0
DWIDTH 7 0
BBX 7 14 0 -3
BITMAP
00
00
00
C0
C0
D8
F0
E0
F0
D8
CC
60
C0
00
ENDCHAR
STARTCHAR U+006B
ENCODING 312
SWIDTH 360 0
DWIDTH 7 0
BBX 7 14 0 -3
BITMAP
00
00
00
00
00
00
C8
D8
F0
D8
C8
00
00
00
ENDCHAR
STARTCHAR U+004C
ENCODING 313
SWIDTH 360 0
DWIDTH 7 0
BBX 7 14 0 -3
BITMAP
18
30
00
C0
C0
C0
C0
C0
C0
C0
FC
00
00
00
ENDCHAR
STARTCHAR U+006C
ENCODING 314
SWIDTH 360 0
DWIDTH 7 0
BBX 7 14 0 -3
BITMAP
18
30
00
F0
30
30
30
30
30
30
FC
00
00
00
ENDCHAR
STARTCHAR U+004C
ENCODING 315
SWIDTH 360 0
DWIDTH 7 0
BBX 7 14 0 -3
BITMAP
00
00
00
C0
C0
C0
C0
C0
C0
C0
FC
30
18
00
ENDCHAR
STARTCHAR U+006C
ENCODING 316
SWIDTH 360 0
DWIDTH 7 0
BBX 7 14 0 -3
BITMAP
00
00
00
F0
30
30
30
30
30
30
FC
30
60
00
ENDCHAR
STARTCHAR U+004C
ENCODING 317
SWIDTH 360 0
DWIDTH 7 0
BBX 7 14 0 -3
BITMAP
D8
70
00
C0
C0
C0
C0
C0
C0
C0
FC
00
00
00
ENDCHAR
STARTCHAR U+006C
ENCODING 318
SWIDTH 360 0
DWIDTH 7 0
BBX 7 14 0 -3
BITMAP
D8
70
00
F0
30
30
30
30
30
30
FC
00
00
00
ENDCHAR
STARTCHAR U+004C
ENCODING 319
SWIDTH 360 0
DWIDTH 7 0
BBX 7 14 0 -3
BITMAP
00
00
00
C0
C0
D0
D0
D0
C0
C0
FC
00
00
00
ENDCHAR
STARTCHAR U+006C
ENCODING 320
SWIDTH 360 0
DWIDTH 7 0
BBX 7 14 0 -3
BITMAP
00
00
00
F0
30
34
34
34
30
30
FC
00
00
00
ENDCHAR
STARTCHAR U+004C
ENCODING 321
SWIDTH 360 0
DWIDTH 7 0
BBX 7 14 0 -3
BITMAP
00
00
00
C0
C0
C0
E0
C0
C0
C0
FC
00
00
00
ENDCHAR
STARTCHAR U+006C
ENCODING 322
SWIDTH 360 0
DWIDTH 7 0
BBX 7 14 0 -3
BITMAP
00
00
00
F0
30
30
38
70
30
30
FC
00
00
00
ENDCHAR
STARTCHAR U+004E
ENCODING 323
SWIDTH 360 0
DWIDTH 7 0
BBX 7 14 0 -3
BITMAP
18
30
00
CC
CC
EC
FC
DC
CC
CC
CC
00
00
00
ENDCHAR
STARTCHAR U+006E
ENCODING 324
SWIDTH 360 0
DWIDTH 7 0
BBX 7 14 0 -3
BITMAP
00
00
18
30
00
F8
CC
CC
CC
CC
CC
00
00
00
ENDCHAR
STARTCHAR U+004E
ENCODING 325
SWIDTH 360 0
DWIDTH 7 0
BBX 7 14 0 -3
BITMAP
00
00
00
44
44
64
54
4C
44
44
64
20
40
00
ENDCHAR
STARTCHAR U+006E
ENCODING 326
SWIDTH 360 0
DWIDTH 7 0
BBX 7 14 0 -3
BITMAP
00
00
00
00
00
58
64
44
44
44
64
20
40
00
ENDCHAR
STARTCHAR U+004E
ENCODING 327
SWIDTH 360 0
DWIDTH 7 0
BBX 7 14 0 -3
BITMAP
6C
38
00
CC
CC
EC
FC
DC
CC
CC
CC
00
00
00
ENDCHAR
STARTCHAR U+006E
ENCODING 328
SWIDTH 360 0
DWIDTH 7 0
BBX 7 14 0 -3
BITMAP
00
00
6C
38
00
F8
CC
CC
CC
CC
CC
00
00
00
ENDCHAR
STARTCHAR U+006E
ENCODING 329
SWIDTH 360 0
DWIDTH 7 0
BBX 7 14 0 -3
BITMAP
00
00
20
40
00
58
64
44
44
44
44
00
00
00
ENDCHAR
STARTCHAR U+004E
ENCODING 330
SWIDTH 360 0
DWIDTH 7 0
BBX 7 14 0 -3
BITMAP
00
00
00
44
44
64
54
4C
44
44
44
04
18
00
ENDCHAR
STARTCHAR U+006E
ENCODING 331
SWIDTH 360 0
DWIDTH 7 0
BBX 7 14 0 -3
BITMAP
00
00
00
00
00
58
64
44
44
44
44
04
18
00
ENDCHAR
STARTCHAR U+004F
ENCODING 332
SWIDTH 360 0
DWIDTH 7 0
BBX 7 14 0 -3
BITMAP
00
38
00
38
44
44
44
44
44
44
38
00
00
00
ENDCHAR
STARTCHAR U+006F
ENCODING 333
SWIDTH 360 0
DWIDTH 7 0
BBX 7 14 0 -3
BITMAP
00
00
00
38
00
38
44
44
44
44
38
00
00
00
ENDCHAR
STARTCHAR U+004F
ENCODING 334
SWIDTH 360 0
DWIDTH 7 0
BBX 7 14 0 -3
BITMAP
28
10
00
38
44
44
44
44
44
44
38
00
00
00
ENDCHAR
STARTCHAR U+006F
ENCODING 335
SWIDTH 360 0
DWIDTH 7 0
BBX 7 14 0 -3
BITMAP
00
00
28
10
00
38
44
44
44
44
38
00
00
00
ENDCHAR
STARTCHAR U+004F
ENCODING 336
SWIDTH 360 0
DWIDTH 7 0
BBX 7 14 0 -3
BITMAP
34
58
00
38
44
44
44
44
44
44
38
00
00
00
ENDCHAR
STARTCHAR U+006F
ENCODING 337
SWIDTH 360 0
DWIDTH 7 0
BBX 7 14 0 -3
BITMAP
00
00
34
58
00
38
44
44
44
44
38
00
00
00
ENDCHAR
STARTCHAR U+0052
ENCODING 340
SWIDTH 360 0
DWIDTH 7 0
BBX 7 14 0 -3
BITMAP
18
30
00
F8
CC
CC
CC
F8
D8
CC
CC
00
00
00
ENDCHAR
STARTCHAR U+0072
ENCODING 341
SWIDTH 360 0
DWIDTH 7 0
BBX 7 14 0 -3
BITMAP
00
00
18
30
00
DC
E0
C0
C0
C0
C0
00
00
00
ENDCHAR
STARTCHAR U+0052
ENCODING 342
SWIDTH 360 0
DWIDTH 7 0
BBX 7 14 0 -3
BITMAP
00
00
00
78
44
44
44
78
48
44
64
20
40
00
ENDCHAR
STARTCHAR U+0072
ENCODING 343
SWIDTH 360 0
DWIDTH 7 0
BBX 7 14 0 -3
BITMAP
00
00
00
00
00
5C
60
40
40
40
60
20
40
00
ENDCHAR
STARTCHAR U+0052
ENCODING 344
SWIDTH 360 0
DWIDTH 7 0
BBX 7 14 0 -3
BITMAP
6C
38
00
F8
CC
CC
CC
F8
D8
CC
CC
00
00
00
ENDCHAR
STARTCHAR U+0072
ENCODING 345
SWIDTH 360 0
DWIDTH 7 0
BBX 7 14 0 -3
BITMAP
00
00
D8
70
00
DC
E0
C0
C0
C0
C0
00
00
00
ENDCHAR
STARTCHAR U+0053
ENCODING 346
SWIDTH 360 0
DWIDTH 7 0
BBX 7 14 0 -3
BITMAP
08
10
00
3C
40
40
30
08
04
04
78
00
00
00
ENDCHAR
STARTCHAR U+0073
ENCODING 347
SWIDTH 360 0
DWIDTH 7 0
BBX 7 14 0 -3
BITMAP
00
00
08
10
00
3C
40
30
08
04
78
00
00
00
ENDCHAR
STARTCHAR U+0053
ENCODING 348
SWIDTH 360 0
DWIDTH 7 0
BBX 7 14 0 -3
BITMAP
10
28
00
3C
40
40
30
08
04
04
78
00
00
00
ENDCHAR
STARTCHAR U+0073
ENCODING 349
SWIDTH 360 0
DWIDTH 7 0
BBX 7 14 0 -3
BITMAP
00
10
28
00
00
3C
40
30
08
04
78
00
00
00
ENDCHAR
STARTCHAR U+0053
ENCODING 350
SWIDTH 360 0
DWIDTH 7 0
BBX 7 14 0 -3
BITMAP
00
00
00
3C
40
40
30
08
04
04
78
10
20
00
ENDCHAR
STARTCHAR U+0073
ENCODING 351
SWIDTH 360 0
DWIDTH 7 0
BBX 7 14 0 -3
BITMAP
00
00
00
00
00
3C
40
30
08
04
78
10
20
00
ENDCHAR
STARTCHAR U+0053
ENCODING 352
SWIDTH 360 0
DWIDTH 7 0
BBX 7 14 0 -3
BITMAP
6C
38
00
7C
C0
C0
70
18
0C
0C
F8
00
00
00
ENDCHAR
STARTCHAR U+0073
ENCODING 353
SWIDTH 360 0
DWIDTH 7 0
BBX 7 14 0 -3
BITMAP
00
00
6C
38
00
7C
C0
70
38
0C
F8
00
00
00
ENDCHAR
STARTCHAR U+0054
ENCODING 354
SWIDTH 360 0
DWIDTH 7 0
BBX 7 14 0 -3
BITMAP
00
00
00
7C
10
10
10
10
10
10
18
08
10
00
ENDCHAR
STARTCHAR U+0074
ENCODING 355
SWIDTH 360 0
DWIDTH 7 0
BBX 7 14 0 -3
BITMAP
00
00
00
20
20
7C
20
20
20
20
1C
10
20
00
ENDCHAR
STARTCHAR U+0054
ENCODING 356
SWIDTH 360 0
DWIDTH 7 0
BBX 7 14 0 -3
BITMAP
6C
38
00
FC
30
30
30
30
30
30
30
00
00
00
ENDCHAR
STARTCHAR U+0074
ENCODING 357
SWIDTH 360 0
DWIDTH 7 0
BBX 7 14 0 -3
BITMAP
36
1C
00
60
60
FC
60
60
60
60
3C
00
00
00
ENDCHAR
STARTCHAR U+0054
ENCODING 358
SWIDTH 360 0
DWIDTH 7 0
BBX 7 14 0 -3
BITMAP
00
00
00
7C
10
10
38
10
10
10
10
00
00
00
ENDCHAR
STARTCHAR U+0074
ENCODING 359
SWIDTH 360 0
DWIDTH 7 0
BBX 7 14 0 -3
BITMAP
00
00
00
20
20
7C
20
70
20
20
1C
00
00
00
ENDCHAR
STARTCHAR U+0055
ENCODING 360
SWIDTH 360 0
DWIDTH 7 0
BBX 7 14 0 -3
BITMAP
34
58
00
44
44
44
44
44
44
44
38
00
00
00
ENDCHAR
STARTCHAR U+0075
ENCODING 361
SWIDTH 360 0
DWIDTH 7 0
BBX 7 14 0 -3
BITMAP
00
00
34
58
00
44
44
44
44
4C
34
00
00
00
ENDCHAR
STARTCHAR U+0055
ENCODING 362
SWIDTH 360 0
DWIDTH 7 0
BBX 7 14 0 -3
BITMAP
00
38
00
44
44
44
44
44
44
44
38
00
00
00
ENDCHAR
STARTCHAR U+0075
ENCODING 363
SWIDTH 360 0
DWIDTH 7 0
BBX 7 14 0 -3
BITMAP
00
00
00
38
00
44
44
44
44
4C
34
00
00
00
ENDCHAR
STARTCHAR U+0055
ENCODING 364
SWIDTH 360 0
DWIDTH 7 0
BBX 7 14 0 -3
BITMAP
28
10
00
44
44
44
44
44
44
44
38
00
00
00
ENDCHAR
STARTCHAR U+0075
ENCODING 365
SWIDTH 360 0
DWIDTH 7 0
BBX 7 14 0 -3
BITMAP
00
00
28
10
00
44
44
44
44
4C
34
00
00
00
ENDCHAR
STARTCHAR U+0055
ENCODING 366
SWIDTH 360 0
DWIDTH 7 0
BBX 7 14 0 -3
BITMAP
30
68
30
CC
CC
CC
CC
CC
CC
CC
78
00
00
00
ENDCHAR
STARTCHAR U+0075
ENCODING 367
SWIDTH 360 0
DWIDTH 7 0
BBX 7 14 0 -3
BITMAP
00
30
68
30
00
CC
CC
CC
CC
CC
7C
00
00
00
ENDCHAR
STARTCHAR U+0055
ENCODING 368
SWIDTH 360 0
DWIDTH 7 0
BBX 7 14 0 -3
BITMAP
34
58
00
44
44
44
44
44
44
44
38
00
00
00
ENDCHAR
STARTCHAR U+0075
ENCODING 369
SWIDTH 360 0
DWIDTH 7 0
BBX 7 14 0 -3
BITMAP
00
00
34
58
00
44
44
44
44
4C
34
00
00
00
ENDCHAR
STARTCHAR U+0055
ENCODING 370
SWIDTH 360 0
DWIDTH 7 0
BBX 7 14 0 -3
BITMAP
00
00
00
44
44
44
44
44
44
44
38
10
0C
00
ENDCHAR
STARTCHAR U+0075
ENCODING 371
SWIDTH 360 0
DWIDTH 7 0
BBX 7 14 0 -3
BITMAP
00
00
00
00
00
44
44
44
44
4C
34
10
0C
00
ENDCHAR
STARTCHAR U+0057
ENCODING 372
SWIDTH 360 0
DWIDTH 7 0
BBX 7 14 0 -3
BITMAP
10
28
00
44
44
44
44
54
54
6C
44
00
00
00
ENDCHAR
STARTCHAR U+0077
ENCODING 373
SWIDTH 360 0
DWIDTH 7 0
BBX 7 14 0 -3
BITMAP
00
00
10
28
00
44
44
54
54
54
6C
00
00
00
ENDCHAR
STARTCHAR U+0059
ENCODING 374
SWIDTH 360 0
DWIDTH 7 0
BBX 7 14 0 -3
BITMAP
10
28
00
44
44
28
28
10
10
10
10
00
00
00
ENDCHAR
STARTCHAR U+0079
ENCODING 375
SWIDTH 360 0
DWIDTH 7 0
BBX 7 14 0 -3
BITMAP
00
00
10
28
00
44
44
44
28
28
10
10
60
00
ENDCHAR
STARTCHAR U+0059
ENCODING 376
SWIDTH 360 0
DWIDTH 7 0
BBX 7 14 0 -3
BITMAP
28
28
00
44
44
28
28
10
10
10
10
00
00
00
ENDCHAR
STARTCHAR U+005A
ENCODING 377
SWIDTH 360 0
DWIDTH 7 0
BBX 7 14 0 -3
BITMAP
08
10
00
7C
08
08
10
10
20
20
7C
00
00
00
ENDCHAR
STARTCHAR U+007A
ENCODING 378
SWIDTH 360 0
DWIDTH 7 0
BBX 7 14 0 -3
BITMAP
00
00
08
10
00
7C
08
10
10
20
7C
00
00
00
ENDCHAR
STARTCHAR U+005A
ENCODING 379
SWIDTH 360 0
DWIDTH 7 0
BBX 7 14 0 -3
BITMAP
10
10
00
7C
08
08
10
10
20
20
7C
00
00
00
ENDCHAR
STARTCHAR U+007A
ENCODING 380
SWIDTH 360 0
DWIDTH 7 0
BBX 7 14 0 -3
BITMAP
00
00
10
10
00
7C
08
10
10
20
7C
00
00
00
ENDCHAR
STARTCHAR U+005A
ENCODING 381
SWIDTH 360 0
DWIDTH 7 0
BBX 7 14 0 -3
BITMAP
6C
38
00
FC
18
18
30
30
60
60
FC
00
00
00
ENDCHAR
STARTCHAR U+007A
ENCODING 382
SWIDTH 360 0
DWIDTH 7 0
BBX 7 14 0 -3
BITMAP
00
00
6C
38
00
FC
18
30
30
60
FC
00
00
00
ENDCHAR
STARTCHAR char960
ENCODING 960
SWIDTH 360 0
DWIDTH 7 0
BBX 7 14 0 -3
BITMAP
00
00
00
00
00
FC
48
48
48
48
48
00
00
00
ENDCHAR
STARTCHAR char8226
ENCODING 8226
SWIDTH 360 0
DWIDTH 7 0
BBX 7 14 0 -3
BITMAP
00
00
00
00
00
30
78
78
30
00
00
00
00
00
ENDCHAR
STARTCHAR trademark
ENCODING 8482
SWIDTH 360 0
DWIDTH 7 0
BBX 7 14 0 -3
BITMAP
00
00
00
00
F4
5C
54
54
00
00
00
00
00
00
ENDCHAR
STARTCHAR char8592
ENCODING 8592
SWIDTH 360 0
DWIDTH 7 0
BBX 7 14 0 -3
BITMAP
00
00
00
06
1E
7E
FE
7E
1E
06
00
00
00
00
ENDCHAR
STARTCHAR char8593
ENCODING 8593
SWIDTH 360 0
DWIDTH 7 0
BBX 7 14 0 -3
BITMAP
00
00
10
38
7C
10
10
10
10
10
10
00
00
00
ENDCHAR
STARTCHAR char8592
ENCODING 8594
SWIDTH 360 0
DWIDTH 7 0
BBX 7 14 0 -3
BITMAP
00
00
00
C0
F0
FC
FE
FC
F0
C0
00
00
00
00
ENDCHAR
STARTCHAR char8593
ENCODING 8595
SWIDTH 360 0
DWIDTH 7 0
BBX 7 14 0 -3
BITMAP
00
00
10
10
10
10
10
10
7C
38
10
00
00
00
ENDCHAR
STARTCHAR char8593
ENCODING 8597
SWIDTH 360 0
DWIDTH 7 0
BBX 7 14 0 -3
BITMAP
00
00
10
38
7C
10
10
10
7C
38
10
00
00
00
ENDCHAR
STARTCHAR char8593
ENCODING 8623
SWIDTH 360 0
DWIDTH 7 0
BBX 7 14 0 -3
BITMAP
00
00
0C
18
30
60
7C
0C
18
30
60
00
00
00
ENDCHAR
STARTCHAR char11104
ENCODING 11104
SWIDTH 360 0
DWIDTH 7 0
BBX 7 14 0 -3
BITMAP
00
C0
C0
C8
DC
C8
C8
C8
C8
D0
E0
C0
C0
00
ENDCHAR
STARTCHAR char11105
ENCODING 11105
SWIDTH 360 0
DWIDTH 7 0
BBX 7 14 0 -3
BITMAP
00
80
80
80
80
80
F0
12
12
1A
16
12
12
00
ENDCHAR
STARTCHAR char11106
ENCODING 11106
SWIDTH 360 0
DWIDTH 7 0
BBX 7 14 0 -3
BITMAP
00
00
00
FC
80
BC
84
BC
A0
A0
A0
E0
00
00
ENDCHAR
STARTCHAR char11107
ENCODING 11107
SWIDTH 360 0
DWIDTH 7 0
BBX 7 14 0 -3
BITMAP
00
00
00
FC
04
DC
50
50
50
50
50
70
00
00
ENDCHAR
STARTCHAR char11108
ENCODING 11108
SWIDTH 360 0
DWIDTH 7 0
BBX 7 14 0 -3
BITMAP
00
00
30
48
48
48
FC
CC
CC
FC
FC
78
00
00
ENDCHAR
STARTCHAR char11136
ENCODING 11136
SWIDTH 360 0
DWIDTH 7 0
BBX 7 14 0 -3
BITMAP
80
C0
E0
F0
F8
FC
FE
FE
FC
F8
F0
E0
C0
80
ENDCHAR
STARTCHAR char11136
ENCODING 11137
SWIDTH 360 0
DWIDTH 7 0
BBX 7 14 0 -3
BITMAP
80
40
20
10
08
04
02
02
04
08
10
20
40
80
ENDCHAR
STARTCHAR char11136
ENCODING 11138
SWIDTH 360 0
DWIDTH 7 0
BBX 7 14 0 -3
BITMAP
02
06
0E
1E
3E
7E
FE
FE
7E
3E
1E
0E
06
02
ENDCHAR
STARTCHAR char11136
ENCODING 11139
SWIDTH 360 0
DWIDTH 7 0
BBX 7 14 0 -3
BITMAP
02
04
08
10
20
40
80
80
40
20
10
08
04
02
ENDCHAR
ENDFONT
